<svg width="24" height="24" viewBox="0 0 24 24" fill="none" xmlns="http://www.w3.org/2000/svg">
<path d="M1.44905 4.6373L1.44905 2.52609C1.44905 1.63216 2.1718 0.9094 3.06098 0.914155L21.5436 0.9094C22.4375 0.9094 23.1602 1.63216 23.1555 2.52133L23.1555 21.0087C23.1555 21.9026 22.4327 22.6253 21.5436 22.6206L19.4323 22.6206C18.5289 22.6206 17.8014 21.8741 17.8204 20.9706L18.0914 9.78217L4.42566 23.448C3.79325 24.0804 2.77568 24.0804 2.14327 23.448L0.621682 21.9264C-0.010729 21.294 -0.0107289 20.2764 0.621682 19.644L14.2875 5.9782L3.09902 6.24923C2.19082 6.27301 1.44429 5.5455 1.44905 4.6373Z" fill="black"/>
</svg>
