<svg id="e4vj71UTHwx1" xmlns="http://www.w3.org/2000/svg" xmlns:xlink="http://www.w3.org/1999/xlink" viewBox="0 0 330 148.3" shape-rendering="geometricPrecision" text-rendering="geometricPrecision">
<style><![CDATA[
#e4vj71UTHwx11_tr {animation: e4vj71UTHwx11_tr__tr 5000ms linear 1 normal forwards}@keyframes e4vj71UTHwx11_tr__tr { 0% {transform: translate(165.25px,74.1px) rotate(0.000009deg);animation-timing-function: cubic-bezier(0.42,0,0.58,1)} 10% {transform: translate(165.25px,74.1px) rotate(0.000009deg);animation-timing-function: cubic-bezier(0.42,0,0.58,1)} 20% {transform: translate(165.25px,74.1px) rotate(-15deg);animation-timing-function: cubic-bezier(0,0,0.12,1.07)} 46% {transform: translate(165.25px,74.1px) rotate(600deg)} 70% {transform: translate(165.25px,74.1px) rotate(600deg)} 100% {transform: translate(165.25px,74.1px) rotate(600deg)}} #e4vj71UTHwx11_ts {animation: e4vj71UTHwx11_ts__ts 5000ms linear 1 normal forwards}@keyframes e4vj71UTHwx11_ts__ts { 0% {transform: scale(1,1)} 46% {transform: scale(1,1);animation-timing-function: cubic-bezier(0,0,0.38,0.995)} 70% {transform: scale(2,2)} 90% {transform: scale(2,2)} 100% {transform: scale(1,1)}} #e4vj71UTHwx11 {animation: e4vj71UTHwx11_c_o 5000ms linear 1 normal forwards}@keyframes e4vj71UTHwx11_c_o { 0% {opacity: 1} 46% {opacity: 1;animation-timing-function: cubic-bezier(0,0,0.475,1.005)} 70% {opacity: 0} 90% {opacity: 0} 100% {opacity: 1}}
]]></style>
<g transform="translate(-.349997-.000004)"><g><path d="M102.7,135.4c-5.9,0-11.5-.8-16.9-2.4c10.9,7,23.9,11.1,37.8,11.1h83.2c13.9,0,26.9-4.1,37.8-11.1-5.4,1.5-11,2.4-16.9,2.4h-125Z" fill="none" stroke="#0f405f" stroke-width="1.5" stroke-linecap="round" stroke-miterlimit="10"/><path d="M227.7,12.9c5.9,0,11.5.8,16.9,2.4-10.9-7-23.9-11.1-37.8-11.1h-83.2c-13.9,0-26.9,4.1-37.8,11.1c5.4-1.5,11-2.4,16.9-2.4h125Z" fill="none" stroke="#0f405f" stroke-width="1.5" stroke-linecap="round" stroke-miterlimit="10"/><path d="M288.1,84.5c-4,23.3-21.1,42.1-43.5,48.5c16.6-10.7,28.4-28.2,31.4-48.5h12.1Z" fill="none" stroke="#0f405f" stroke-width="1.5" stroke-linecap="round" stroke-miterlimit="10"/><path d="M288.1,63.9c-3.9-23.4-21.1-42.2-43.6-48.7C261.2,25.9,273,43.4,276,63.8l12.1.1Z" fill="none" stroke="#0f405f" stroke-width="1.5" stroke-linecap="round" stroke-miterlimit="10"/><path d="M54.3,84.5c3,20.4,14.8,37.8,31.4,48.5-22.4-6.4-39.6-25.3-43.6-48.7l12.2.2Z" fill="none" stroke="#0f405f" stroke-width="1.5" stroke-linecap="round" stroke-miterlimit="10"/><path d="M54.3,63.8c3-20.4,14.8-37.8,31.4-48.5-22.4,6.4-39.5,25.2-43.5,48.5h12.1Z" fill="none" stroke="#0f405f" stroke-width="1.5" stroke-linecap="round" stroke-miterlimit="10"/><line x1="74.1" y1="74.2" x2="4.4" y2="74.2" fill="none" stroke="#0f405f" stroke-width="1.5" stroke-linecap="round" stroke-miterlimit="10"/><g id="e4vj71UTHwx11_tr" transform="translate(165.25,74.1) rotate(0.000009)"><g id="e4vj71UTHwx11_ts" transform="scale(1,1)"><path id="e4vj71UTHwx11" d="M167,75.3c0,0,0-.1.1-.1c4.1-1.3,13.5,6.1,24.7,6.1c14.7,0,26.5-7.1,26.5-7.1s-11.9-7.2-26.6-7.2c-11.2,0-20.6,7.4-24.7,6.1c0,0-.1-.1-.1-.1.9-4.2,12-8.6,17.7-18.3c7.3-12.7,7.1-26.5,7.1-26.5s-12.1,6.7-19.4,19.4c-5.6,9.7-3.8,21.5-7,24.4c0,0,0,0-.1,0c0,0,0,0-.1,0-3.2-2.9-1.4-14.7-7-24.4-7.3-12.7-19.4-19.4-19.4-19.4s-.2,13.8,7.1,26.5c5.6,9.7,16.7,14.1,17.7,18.3c0,0,0,.1-.1.1-4.1,1.3-13.5-6.1-24.7-6.1-14.7,0-26.5,7.1-26.5,7.1s11.9,7.1,26.5,7.1c11.2,0,20.6-7.4,24.7-6.1c0,0,.1.1.1.1-.9,4.2-12,8.6-17.7,18.3-7.3,12.7-7.1,26.5-7.1,26.5s12.1-6.7,19.4-19.4c5.6-9.7,3.8-21.5,7-24.4c0,0,0,0,.1,0c0,0,0,0,.1,0c3.2,2.9,1.4,14.7,7,24.4c7.3,12.7,19.4,19.4,19.4,19.4s.2-13.8-7.1-26.5c-5.6-9.7-16.7-14-17.6-18.2Z" transform="translate(-165.25,-74.1)" fill="#0f405f"/></g></g><path d="M86.7,66.2c7,0,12.6,7.9,12.6,7.9s-5.6,7.9-12.6,7.9-12.6-7.9-12.6-7.9s5.7-7.9,12.6-7.9Z" fill="none" stroke="#0f405f" stroke-width="1.5" stroke-linecap="round" stroke-miterlimit="10"/><g><path d="M74.1,76c1.7,1.2,4.5,3.8,4.5,6.3s-2.8,5.1-4.5,6.3c-1.7-1.2-4.5-3.8-4.5-6.3.1-2.6,2.8-5.1,4.5-6.3m0-1.8c0,0-6,3.6-6,8.1s6,8.1,6,8.1s6-3.6,6-8.1-6-8.1-6-8.1v0Z" fill="#0f405f"/></g><g><path d="M74.1,59.8c1.7,1.2,4.5,3.8,4.5,6.3s-2.8,5.1-4.5,6.3c-1.7-1.2-4.5-3.8-4.5-6.3.1-2.6,2.8-5.1,4.5-6.3m0-1.9c0,0-6,3.6-6,8.1s6,8.1,6,8.1s6-3.6,6-8.1-6-8.1-6-8.1v0Z" fill="#0f405f"/></g><line x1="256.6" y1="74.2" x2="326.3" y2="74.2" fill="none" stroke="#0f405f" stroke-width="1.5" stroke-linecap="round" stroke-miterlimit="10"/><path d="M244,82.1c-7,0-12.6-7.9-12.6-7.9s5.6-7.9,12.6-7.9s12.6,7.9,12.6,7.9-5.6,7.9-12.6,7.9Z" fill="none" stroke="#0f405f" stroke-width="1.5" stroke-linecap="round" stroke-miterlimit="10"/><g><path d="M256.6,59.8c1.7,1.2,4.5,3.8,4.5,6.3s-2.8,5.1-4.5,6.3c-1.7-1.2-4.5-3.8-4.5-6.3.1-2.6,2.8-5.1,4.5-6.3m0-1.9c0,0-6,3.6-6,8.1s6,8.1,6,8.1s6-3.6,6-8.1c0-4.4-6-8.1-6-8.1v0Z" fill="#0f405f"/></g><g><path d="M256.6,76c1.7,1.2,4.5,3.8,4.5,6.3s-2.8,5.1-4.5,6.3c-1.7-1.2-4.5-3.8-4.5-6.3.1-2.6,2.8-5.1,4.5-6.3m0-1.8c0,0-6,3.6-6,8.1s6,8.1,6,8.1s6-3.6,6-8.1-6-8.1-6-8.1v0Z" fill="#0f405f"/></g></g><g><path d="M31.1,106.3c-.2.1-5.2,2.9-8.9,7-3.6-4.1-8.7-6.9-8.9-7c.2-.1,5.2-2.9,8.9-7c3.6,4.2,8.7,6.9,8.9,7Z" fill="none" stroke="#0f405f" stroke-width="1.5" stroke-linecap="round" stroke-miterlimit="10"/><path d="M25.8,121.4c0,4.1-1.4,7.9-3.6,10.6-2.2-2.7-3.6-6.5-3.6-10.6c0-3,1.6-5.7,3.6-8c2,2.3,3.6,5,3.6,8Z" fill="none" stroke="#0f405f" stroke-width="1.5" stroke-linecap="round" stroke-miterlimit="10"/></g><g><path d="M311.4,28.7c0,3-1.6,5.7-3.6,8-2-2.3-3.6-5.1-3.6-8c0-4.1,1.4-7.9,3.6-10.6c2.2,2.7,3.6,6.4,3.6,10.6Z" fill="none" stroke="#0f405f" stroke-width="1.5" stroke-linecap="round" stroke-miterlimit="10"/><path d="M316.7,43.8c-.2.1-5.2,2.9-8.9,7-3.6-4.1-8.7-6.9-8.9-7c.2-.1,5.2-2.9,8.9-7c3.6,4.1,8.7,6.9,8.9,7Z" fill="none" stroke="#0f405f" stroke-width="1.5" stroke-linecap="round" stroke-miterlimit="10"/></g></g></svg>
