<svg width="22" height="26" viewBox="0 0 22 26" fill="none" xmlns="http://www.w3.org/2000/svg">
<path fill-rule="evenodd" clip-rule="evenodd" d="M7.08345 12.5466H6.41679V8.54664H3.68955C3.32819 8.54664 3.03262 8.83453 3.02311 9.19576L2.64592 23.5291C2.63605 23.904 2.9373 24.2133 3.31235 24.2133H19.6668C20.0442 24.2133 20.3463 23.9004 20.3331 23.5233L19.8302 9.18993C19.8176 8.83105 19.523 8.54664 19.1639 8.54664H16.7501V12.5466H16.0835V8.54664H7.08345V12.5466ZM6.41679 6.87997V6.04661C6.41679 5.88365 6.42433 5.72245 6.43909 5.56334C6.68277 2.93647 8.89295 0.879944 11.5835 0.879944C14.274 0.879944 16.4841 2.93647 16.7278 5.56334C16.7426 5.72245 16.7501 5.88365 16.7501 6.04661V6.87997H19.1639C20.4207 6.87997 21.4517 7.87543 21.4958 9.13148L21.9987 23.4648C22.045 24.7847 20.9876 25.88 19.6668 25.88H3.31235C1.99965 25.88 0.945296 24.7975 0.979829 23.4853L1.35702 9.15192C1.39029 7.8876 2.42479 6.87997 3.68955 6.87997H6.41679ZM16.0835 6.87997V6.04661C16.0835 4.11361 14.0687 2.54661 11.5835 2.54661C9.09817 2.54661 7.08345 4.11361 7.08345 6.04661V6.87997H16.0835Z" fill="#0F405F"/>
</svg>
