<svg width="1" height="60" viewBox="0 0 1 60" fill="none" xmlns="http://www.w3.org/2000/svg">
<path fill-rule="evenodd" clip-rule="evenodd" d="M1 0.5C1 0.223858 0.776142 0 0.5 0C0.223858 0 0 0.223858 0 0.5V4.5C0 4.77614 0.223858 5 0.5 5C0.776142 5 1 4.77614 1 4.5V0.5ZM1 11.5C1 11.2239 0.776142 11 0.5 11C0.223858 11 0 11.2239 0 11.5V15.5C0 15.7761 0.223858 16 0.5 16C0.776142 16 1 15.7761 1 15.5V11.5ZM0.5 22C0.776142 22 1 22.2239 1 22.5V26.5C1 26.7761 0.776142 27 0.5 27C0.223858 27 0 26.7761 0 26.5V22.5C0 22.2239 0.223858 22 0.5 22ZM1 33.5C1 33.2239 0.776142 33 0.5 33C0.223858 33 0 33.2239 0 33.5V37.5C0 37.7761 0.223858 38 0.5 38C0.776142 38 1 37.7761 1 37.5V33.5ZM0.5 44C0.776142 44 1 44.2239 1 44.5V48.5C1 48.7761 0.776142 49 0.5 49C0.223858 49 0 48.7761 0 48.5V44.5C0 44.2239 0.223858 44 0.5 44ZM1 55.5C1 55.2239 0.776142 55 0.5 55C0.223858 55 0 55.2239 0 55.5V59.5C0 59.7761 0.223858 60 0.5 60C0.776142 60 1 59.7761 1 59.5V55.5Z" fill="#0F405F"/>
</svg>
