<svg width="41" height="41" viewBox="0 0 41 41" fill="none" xmlns="http://www.w3.org/2000/svg">
<path fill-rule="evenodd" clip-rule="evenodd" d="M20.5 41C31.8218 41 41 31.8218 41 20.5C41 9.17816 31.8218 0 20.5 0C9.17816 0 0 9.17816 0 20.5C0 31.8218 9.17816 41 20.5 41ZM28.2208 21.4115L21.1739 14.3647C20.6868 13.8776 19.8992 13.8776 19.4122 14.3698L12.3653 21.4167C11.8782 21.8986 11.8782 22.6862 12.3653 23.1732L13.5415 24.3443C14.0234 24.8313 14.811 24.8313 15.298 24.3443L20.293 19.3493L25.2932 24.3391C25.7751 24.8262 26.5627 24.8262 27.0497 24.3391L28.2208 23.1681C28.7078 22.6862 28.7078 21.8986 28.2208 21.4115Z" fill="white" fill-opacity="0.8"/>
</svg>
