<svg width="20" height="26" viewBox="0 0 20 26" fill="none" xmlns="http://www.w3.org/2000/svg">
<circle cx="10.4508" cy="6.29661" r="4.41667" stroke="#0F405F" stroke-width="2"/>
<mask id="path-2-inside-1_238_9354" fill="white">
<path fill-rule="evenodd" clip-rule="evenodd" d="M0.505859 24.0309C1.0279 18.2782 5.18787 13.7966 10.2423 13.7966C15.2968 13.7966 19.4567 18.2782 19.9788 24.0309C16.9653 25.2242 13.6804 25.8799 10.2423 25.8799C6.80424 25.8799 3.51934 25.2242 0.505859 24.0309Z"/>
</mask>
<path d="M0.505859 24.0309L-1.48596 23.8502L-1.62113 25.3398L-0.230457 25.8905L0.505859 24.0309ZM19.9788 24.0309L20.7151 25.8905L22.1058 25.3398L21.9706 23.8502L19.9788 24.0309ZM2.49767 24.2117C2.95129 19.213 6.4782 15.7966 10.2423 15.7966V11.7966C3.89754 11.7966 -0.895484 17.3434 -1.48596 23.8502L2.49767 24.2117ZM10.2423 15.7966C14.0064 15.7966 17.5333 19.213 17.987 24.2117L21.9706 23.8502C21.3801 17.3434 16.5871 11.7966 10.2423 11.7966V15.7966ZM19.2424 22.1714C16.4595 23.2734 13.4241 23.8799 10.2423 23.8799V27.8799C13.9366 27.8799 17.4711 27.175 20.7151 25.8905L19.2424 22.1714ZM10.2423 23.8799C7.06045 23.8799 4.02513 23.2734 1.24218 22.1714L-0.230457 25.8905C3.01356 27.175 6.54802 27.8799 10.2423 27.8799V23.8799Z" fill="#0F405F" mask="url(#path-2-inside-1_238_9354)"/>
</svg>
