<svg width="385" height="200" viewBox="0 0 385 200" fill="none" xmlns="http://www.w3.org/2000/svg">
<path fill-rule="evenodd" clip-rule="evenodd" d="M226.034 43.0001C226.019 66.4856 213.824 89.3222 192.023 101.909C192.023 76.7351 205.703 54.756 226.034 43.0001Z" fill="#0F405F"/>
<path fill-rule="evenodd" clip-rule="evenodd" d="M158.011 160.819C158.027 137.333 170.221 114.496 192.023 101.909C192.023 127.084 178.343 149.063 158.011 160.819Z" fill="#0F405F"/>
<path fill-rule="evenodd" clip-rule="evenodd" d="M158.011 43C178.343 54.7559 192.023 76.735 192.023 101.909C170.221 89.3222 158.027 66.4855 158.011 43Z" fill="#0F405F"/>
<path fill-rule="evenodd" clip-rule="evenodd" d="M226.034 160.819C205.702 149.063 192.023 127.084 192.023 101.909C192.023 101.909 192.023 101.909 192.023 101.909C213.824 114.496 226.019 137.333 226.034 160.819Z" fill="#0F405F"/>
<path fill-rule="evenodd" clip-rule="evenodd" d="M260.045 101.91C239.699 113.639 213.824 114.496 192.023 101.909C213.824 89.3222 239.699 90.18 260.045 101.91Z" fill="#0F405F"/>
<path fill-rule="evenodd" clip-rule="evenodd" d="M124 101.909C144.347 90.1798 170.221 89.3222 192.023 101.909C192.023 101.909 192.023 101.909 192.023 101.909C170.221 114.496 144.347 113.639 124 101.909Z" fill="#0F405F"/>
<path fill-rule="evenodd" clip-rule="evenodd" d="M248 5H136C92.9125 5 56.5248 33.685 44.8917 73H39.6875C51.4686 30.8877 90.1272 0 136 0H248C294.596 0 333.748 31.8693 344.85 75H339.676C328.702 34.6616 291.815 5 248 5ZM39.6875 127C51.4686 169.112 90.1272 200 136 200H248C293.143 200 331.3 170.087 343.73 129H338.492C326.233 167.284 290.353 195 248 195H136C92.9125 195 56.5248 166.315 44.8917 127H39.6875Z" fill="#0F405F"/>
<path fill-rule="evenodd" clip-rule="evenodd" d="M248 20H136C101.292 20 71.7467 42.1024 60.6708 73H55.3779C66.6618 39.2916 98.4941 15 136 15H248C286.244 15 318.588 40.2566 329.264 75H324.016C313.518 43.0607 283.452 20 248 20ZM55.3779 127C66.6618 160.708 98.4941 185 136 185H248C284.76 185 316.07 161.665 327.925 129H322.582C310.968 158.847 281.954 180 248 180H136C101.292 180 71.7467 157.898 60.6708 127H55.3779Z" fill="#0F405F"/>
<path fill-rule="evenodd" clip-rule="evenodd" d="M307.775 74.1522L306.972 74.9077C306.655 75.2057 306.297 75.5244 305.913 75.8669C303.145 78.3323 299 82.0235 299 88C299 89.8229 299.246 91.229 299.584 92.3459C296.976 90.7376 293.726 89.5 290 89.5C285.773 89.5 281.848 91.345 278.729 93.5196C275.6 95.7018 273.137 98.3168 271.8 100.1L270.999 101.168L271.967 102.088C273.693 103.727 276.619 106.166 279.849 108.206C283.012 110.204 286.743 112 290 112C293.96 112 296.677 110.421 298.689 108.617C299.088 108.259 299.461 107.891 299.809 107.527C298.61 109.418 298 111.637 298 115C298 116.844 298.648 118.629 299.513 120.206C300.383 121.792 301.524 123.261 302.632 124.5C303.744 125.743 304.852 126.785 305.679 127.515C306.094 127.881 306.441 128.171 306.687 128.372C306.81 128.472 306.908 128.55 306.976 128.604C307.01 128.631 307.037 128.651 307.056 128.666L307.078 128.684L307.087 128.69L307.088 128.691C307.089 128.691 307.089 128.692 308 127.5C308.828 128.75 308.829 128.75 308.829 128.75L308.83 128.749L308.833 128.747L308.84 128.742L308.864 128.727C308.883 128.714 308.91 128.695 308.944 128.672C309.011 128.625 309.107 128.558 309.226 128.472C309.464 128.299 309.798 128.047 310.196 127.724C310.99 127.078 312.051 126.137 313.116 124.953C315.21 122.622 317.5 119.148 317.5 115C317.5 109.149 314.238 105.227 311.572 102.5H383C383.828 102.5 384.5 101.828 384.5 101C384.5 100.172 383.828 99.5 383 99.5H311.694C312.573 98.6821 313.506 97.7884 314.349 96.7684C316.132 94.6125 317.5 91.9093 317.5 88C317.5 84.7313 315.954 81.7844 314.178 79.5334C312.398 77.2771 310.25 75.5447 308.735 74.6926L307.775 74.1522ZM307.323 99.529C307.073 99.5487 306.795 99.5793 306.495 99.6235C306.522 99.3046 306.447 98.9746 306.259 98.6851C305.736 97.8764 304.959 96.886 303.957 95.8586C303.985 95.7437 304 95.6236 304 95.5C304 94.8117 303.709 94.2211 303.523 93.8569C303.445 93.7031 303.371 93.5651 303.299 93.4299C303.157 93.1643 303.021 92.9099 302.866 92.5687C302.45 91.6488 302 90.2757 302 88C302 83.4679 305.014 80.74 307.822 78.1982C307.937 78.0939 308.052 77.9899 308.166 77.8862C309.259 78.6627 310.629 79.8793 311.822 81.3916C313.38 83.3656 314.5 85.6687 314.5 88C314.5 91.0907 313.459 93.1375 312.037 94.8566C311.304 95.7428 310.468 96.5443 309.571 97.378C309.463 97.4785 309.353 97.5799 309.243 97.6821C308.61 98.2685 307.947 98.8823 307.323 99.529ZM303.751 100.33C302.829 100.68 301.894 101.164 301.063 101.829C300.338 102.409 299.643 103.206 298.998 103.945L298.924 104.029C298.224 104.832 297.514 105.641 296.686 106.383C295.073 107.829 293.04 109 290 109C287.657 109 284.554 107.629 281.451 105.669C278.983 104.11 276.688 102.291 275.053 100.845C276.312 99.3829 278.187 97.5555 280.446 95.9804C283.302 93.9884 286.627 92.5 290 92.5C293.418 92.5 296.418 93.7739 298.812 95.4228C301.216 97.0787 302.928 99.0593 303.741 100.315C303.744 100.32 303.747 100.325 303.751 100.33ZM308.001 103.19C308.224 103.418 308.451 103.647 308.68 103.878C311.422 106.645 314.5 109.75 314.5 115C314.5 118.052 312.79 120.828 310.884 122.947C309.949 123.988 309.01 124.822 308.304 125.395C308.215 125.468 308.129 125.536 308.048 125.6C307.93 125.498 307.801 125.387 307.664 125.266C306.898 124.59 305.881 123.632 304.868 122.5C303.851 121.364 302.867 120.083 302.143 118.763C301.414 117.434 301 116.156 301 115C301 111.522 301.719 109.834 302.929 108.316C303.585 107.494 304.405 106.699 305.465 105.685L305.574 105.581C306.3 104.886 307.115 104.107 308.001 103.19ZM308 127.5L308.828 128.75L307.938 129.341L307.088 128.691L308 127.5Z" fill="#0F405F"/>
<path fill-rule="evenodd" clip-rule="evenodd" d="M77.2253 74.1522L78.028 74.9077C78.3446 75.2057 78.7026 75.5244 79.0871 75.8669C81.8553 78.3323 86 82.0235 86 88C86 89.8229 85.7537 91.229 85.4159 92.3459C88.0239 90.7376 91.2744 89.5 95 89.5C99.2269 89.5 103.152 91.345 106.271 93.5196C109.4 95.7018 111.863 98.3168 113.2 100.1L114.001 101.168L113.033 102.088C111.307 103.727 108.381 106.166 105.151 108.206C101.988 110.204 98.2574 112 95 112C91.0404 112 88.3235 110.421 86.3112 108.617C85.9116 108.259 85.5389 107.891 85.1908 107.527C86.3903 109.418 87 111.637 87 115C87 116.844 86.352 118.629 85.4871 120.206C84.617 121.792 83.4762 123.261 82.3679 124.5C81.2556 125.743 80.1481 126.785 79.3206 127.515C78.9057 127.881 78.5586 128.171 78.313 128.372C78.1901 128.472 78.0923 128.55 78.024 128.604C77.9899 128.631 77.963 128.651 77.944 128.666L77.9215 128.684L77.9126 128.69L77.9118 128.691C77.9115 128.691 77.9112 128.692 77 127.5C76.1716 128.75 76.1712 128.75 76.1707 128.75L76.1697 128.749L76.167 128.747L76.1596 128.742L76.1361 128.727C76.1167 128.714 76.0899 128.695 76.0562 128.672C75.9887 128.625 75.8935 128.558 75.7744 128.472C75.5364 128.299 75.2023 128.047 74.8041 127.724C74.01 127.078 72.9492 126.137 71.8844 124.953C69.7897 122.622 67.5 119.148 67.5 115C67.5 109.149 70.7619 105.227 73.4277 102.5H2C1.17157 102.5 0.5 101.828 0.5 101C0.5 100.172 1.17157 99.5 2 99.5H73.3056C72.4273 98.6821 71.4943 97.7884 70.6509 96.7684C68.868 94.6125 67.5 91.9093 67.5 88C67.5 84.7313 69.0464 81.7844 70.8224 79.5334C72.6025 77.2771 74.7498 75.5447 76.2646 74.6926L77.2253 74.1522ZM77.6767 99.529C77.9268 99.5487 78.2053 99.5793 78.505 99.6235C78.4784 99.3046 78.5533 98.9746 78.7406 98.6851C79.2639 97.8764 80.0411 96.886 81.0432 95.8586C81.015 95.7437 81 95.6236 81 95.5C81 94.8117 81.2906 94.2211 81.4766 93.8569C81.5551 93.7031 81.6289 93.5651 81.7011 93.4299C81.8431 93.1643 81.9791 92.9099 82.1336 92.5687C82.5502 91.6488 83 90.2757 83 88C83 83.4679 79.9863 80.74 77.1782 78.1982C77.063 78.0939 76.9481 77.9899 76.8338 77.8862C75.7406 78.6627 74.3708 79.8793 73.1776 81.3916C71.6203 83.3656 70.5 85.6687 70.5 88C70.5 91.0907 71.5411 93.1375 72.9628 94.8566C73.6957 95.7428 74.5323 96.5443 75.429 97.378C75.5372 97.4785 75.6466 97.5799 75.7569 97.6821C76.3899 98.2685 77.0525 98.8823 77.6767 99.529ZM81.2493 100.33C82.1713 100.68 83.1064 101.164 83.937 101.829C84.6621 102.409 85.3575 103.206 86.0019 103.945L86.0755 104.029C86.7762 104.832 87.4855 105.641 88.3138 106.383C89.9265 107.829 91.9596 109 95 109C97.3426 109 100.446 107.629 103.549 105.669C106.017 104.11 108.312 102.291 109.947 100.845C108.688 99.3829 106.813 97.5555 104.554 95.9804C101.698 93.9884 98.3731 92.5 95 92.5C91.5821 92.5 88.5822 93.7739 86.1884 95.4228C83.7845 97.0787 82.0718 99.0593 81.2594 100.315C81.256 100.32 81.2527 100.325 81.2493 100.33ZM76.9986 103.19C76.7759 103.418 76.549 103.647 76.3197 103.878C73.5778 106.645 70.5 109.75 70.5 115C70.5 118.052 72.2103 120.828 74.1156 122.947C75.0508 123.988 75.99 124.822 76.6959 125.395C76.7852 125.468 76.8706 125.536 76.9515 125.6C77.0702 125.498 77.1988 125.387 77.3357 125.266C78.1019 124.59 79.1194 123.632 80.1321 122.5C81.1488 121.364 82.133 120.083 82.8567 118.763C83.5855 117.434 84 116.156 84 115C84 111.522 83.2813 109.834 82.0714 108.316C81.4153 107.494 80.5952 106.699 79.5347 105.685L79.4263 105.581C78.6998 104.886 77.8851 104.107 76.9986 103.19ZM77 127.5L76.1716 128.75L77.0624 129.341L77.9118 128.691L77 127.5Z" fill="#0F405F"/>
<path fill-rule="evenodd" clip-rule="evenodd" d="M266.471 64.3305C267.308 63.8471 267.98 63.1879 268.468 62.4265C268.683 62.0907 269.043 61.8615 269.441 61.8664V61.8664C270.445 61.8787 270.877 60.5983 270.071 59.9999L267.358 57.9861C266.915 57.6567 266.627 57.1585 266.563 56.6096L266.176 53.2538C266.061 52.2565 264.736 51.9904 264.245 52.866V52.866C264.05 53.2138 263.671 53.4104 263.273 53.4289C262.37 53.4706 261.463 53.7233 260.626 54.2067C257.83 55.8207 256.872 59.3954 258.486 62.1911C260.1 64.9867 263.675 65.9445 266.471 64.3305Z" fill="#0F405F"/>
<path fill-rule="evenodd" clip-rule="evenodd" d="M117.382 139.865C116.699 140.549 116.22 141.36 115.946 142.221C115.825 142.601 115.537 142.916 115.151 143.014V143.014C114.178 143.262 114.092 144.611 115.025 144.98L118.167 146.223C118.681 146.427 119.088 146.833 119.291 147.347L120.534 150.488C120.903 151.422 122.252 151.336 122.5 150.363V150.363C122.598 149.977 122.913 149.689 123.293 149.568C124.154 149.294 124.965 148.815 125.648 148.131C127.931 145.849 127.931 142.148 125.648 139.865C123.366 137.583 119.665 137.583 117.382 139.865Z" fill="#0F405F"/>
</svg>
