<svg width="26" height="26" viewBox="0 0 26 26" fill="none" xmlns="http://www.w3.org/2000/svg">
<path d="M23.9434 22.8038L16.7754 15.5382C17.752 14.1758 18.333 12.501 18.333 10.6944C18.333 6.1485 14.6855 2.44733 10.2031 2.44733C5.71582 2.44245 2.06836 6.14362 2.06836 10.6895C2.06836 15.2354 5.71582 18.9366 10.1982 18.9366C12.1416 18.9366 13.9238 18.2432 15.3252 17.086L22.4541 24.3174L23.9434 22.8038ZM10.1982 17.0323C6.75098 17.0323 3.94336 14.1856 3.94336 10.6895C3.94336 7.19343 6.75098 4.34675 10.1982 4.34675C13.6455 4.34675 16.4531 7.19343 16.4531 10.6895C16.4531 14.1856 13.6504 17.0323 10.1982 17.0323Z" fill="#0F405F"/>
</svg>
