<svg width="78" height="67" viewBox="0 0 78 67" fill="none" xmlns="http://www.w3.org/2000/svg">
<path fill-rule="evenodd" clip-rule="evenodd" d="M57.9784 6.1361e-05C57.9698 13.289 51.0405 26.2108 38.6523 33.3331C38.6523 19.0886 46.4256 6.652 57.9784 6.1361e-05Z" fill="black" fill-opacity="0.2"/>
<path fill-rule="evenodd" clip-rule="evenodd" d="M19.3262 66.6663C19.3348 53.3773 26.2641 40.4554 38.6523 33.3331C38.6523 47.5777 30.8791 60.0144 19.3262 66.6663Z" fill="black" fill-opacity="0.2"/>
<path fill-rule="evenodd" clip-rule="evenodd" d="M19.3262 0C30.879 6.65193 38.6523 19.0886 38.6523 33.3331C26.2641 26.2108 19.3348 13.289 19.3262 0Z" fill="black" fill-opacity="0.2"/>
<path fill-rule="evenodd" clip-rule="evenodd" d="M57.9784 66.6663C46.4255 60.0144 38.6523 47.5776 38.6523 33.3331C38.6523 33.3331 38.6523 33.3331 38.6523 33.3331C51.0405 40.4554 57.9698 53.3773 57.9784 66.6663Z" fill="black" fill-opacity="0.2"/>
<path fill-rule="evenodd" clip-rule="evenodd" d="M77.3046 33.3333C65.7431 39.9703 51.0405 40.4554 38.6523 33.3331C51.0405 26.2109 65.7431 26.6962 77.3046 33.3333Z" fill="black" fill-opacity="0.2"/>
<path fill-rule="evenodd" clip-rule="evenodd" d="M0 33.3332C11.5615 26.6961 26.2641 26.2108 38.6523 33.3331C38.6523 33.3331 38.6523 33.3331 38.6523 33.3331C26.2641 40.4554 11.5615 39.9703 0 33.3332Z" fill="black" fill-opacity="0.2"/>
</svg>
