<svg width="25" height="25" viewBox="0 0 25 25" fill="none" xmlns="http://www.w3.org/2000/svg">
<path fill-rule="evenodd" clip-rule="evenodd" d="M25 12.5C25 19.4036 19.4036 25 12.5 25C5.59644 25 0 19.4036 0 12.5C0 5.59644 5.59644 0 12.5 0C19.4036 0 25 5.59644 25 12.5ZM12.6395 21.1496C17.6304 21.1496 21.01 17.6374 21.01 12.7023C21.01 12.1268 20.9542 11.7013 20.874 11.2584H12.6395V14.2334H17.5502C17.3479 15.5064 16.0645 17.9618 12.6395 17.9618C9.6889 17.9618 7.27888 15.5169 7.27888 12.5C7.27888 7.63811 13.0057 5.40597 16.0854 8.37751L18.4396 6.11398C16.9294 4.70494 14.9693 3.85045 12.6395 3.85045C7.85435 3.85045 3.98996 7.71484 3.98996 12.5C3.98996 17.2852 7.85435 21.1496 12.6395 21.1496Z" fill="#0F405F"/>
</svg>
