<svg width="25" height="26" viewBox="0 0 25 26" fill="none" xmlns="http://www.w3.org/2000/svg">
<path d="M12.5046 7.38477C9.39917 7.38477 6.89429 9.88965 6.89429 12.9951C6.89429 16.1006 9.39917 18.6055 12.5046 18.6055C15.6101 18.6055 18.115 16.1006 18.115 12.9951C18.115 9.88965 15.6101 7.38477 12.5046 7.38477ZM12.5046 16.6426C10.4978 16.6426 8.85718 15.0068 8.85718 12.9951C8.85718 10.9834 10.4929 9.34766 12.5046 9.34766C14.5164 9.34766 16.1521 10.9834 16.1521 12.9951C16.1521 15.0068 14.5115 16.6426 12.5046 16.6426ZM19.6531 7.15527C19.6531 7.88281 19.0671 8.46387 18.3445 8.46387C17.6169 8.46387 17.0359 7.87793 17.0359 7.15527C17.0359 6.43262 17.6218 5.84668 18.3445 5.84668C19.0671 5.84668 19.6531 6.43262 19.6531 7.15527ZM23.3689 8.4834C23.2859 6.73047 22.8855 5.17773 21.6013 3.89844C20.322 2.61914 18.7693 2.21875 17.0164 2.13086C15.2097 2.02832 9.79468 2.02832 7.98804 2.13086C6.23999 2.21387 4.68726 2.61426 3.40308 3.89355C2.1189 5.17285 1.72339 6.72559 1.6355 8.47852C1.53296 10.2852 1.53296 15.7002 1.6355 17.5068C1.71851 19.2598 2.1189 20.8125 3.40308 22.0918C4.68726 23.3711 6.23511 23.7715 7.98804 23.8594C9.79468 23.9619 15.2097 23.9619 17.0164 23.8594C18.7693 23.7764 20.322 23.376 21.6013 22.0918C22.8806 20.8125 23.281 19.2598 23.3689 17.5068C23.4714 15.7002 23.4714 10.29 23.3689 8.4834ZM21.0349 19.4453C20.6541 20.4023 19.9167 21.1396 18.9548 21.5254C17.5144 22.0967 14.0964 21.9648 12.5046 21.9648C10.9128 21.9648 7.48999 22.0918 6.05444 21.5254C5.09741 21.1445 4.36011 20.4072 3.97437 19.4453C3.40308 18.0049 3.53491 14.5869 3.53491 12.9951C3.53491 11.4033 3.40796 7.98047 3.97437 6.54492C4.35522 5.58789 5.09253 4.85059 6.05444 4.46484C7.49487 3.89355 10.9128 4.02539 12.5046 4.02539C14.0964 4.02539 17.5193 3.89844 18.9548 4.46484C19.9119 4.8457 20.6492 5.58301 21.0349 6.54492C21.6062 7.98535 21.4744 11.4033 21.4744 12.9951C21.4744 14.5869 21.6062 18.0098 21.0349 19.4453Z" fill="#EEE5DA"/>
</svg>
