<svg width="63" height="10" viewBox="0 0 63 10" fill="none" xmlns="http://www.w3.org/2000/svg">
<path fill-rule="evenodd" clip-rule="evenodd" d="M38.678 1.18822C38.678 0.911018 37.0204 0.356603 37.2966 0.0793772C37.8492 -0.475017 45.0282 2.0174 46.9621 3.12623C47.1846 3.2538 47.6277 3.69757 47.7095 3.76252C48.1149 3.58885 48.6999 3.57318 49.1763 3.40586C50.5988 2.90633 52.2209 2.29703 53.8729 2.29703C55.3987 2.29703 57.6245 2.36463 59.4536 2.80511C60.3619 3.02383 61.2576 3.35348 61.9225 3.87847C62.6249 4.43306 63.0885 5.23004 62.9858 6.26068C62.8994 7.12748 62.5678 7.8538 62.0339 8.42941C61.5097 8.99462 60.8256 9.37732 60.081 9.6329C58.6089 10.1382 55.8068 10.0564 54.978 9.77919C52.9505 9.6227 51.2816 8.95955 49.9428 7.90664C49.2942 7.3966 48.6916 6.84641 48.1352 6.33845L48.0876 6.29497C47.8669 6.09354 47.6544 5.89997 47.4474 5.71606C47.1844 5.84946 46.9879 5.96165 46.8733 6.03826C46.0698 6.57577 44.8501 6.89625 44.366 6.99341L44.2855 7.00956H0.828814C0.371073 7.00956 0 6.63723 0 6.17793C0 5.71864 9.21176 5.34631 9.6695 5.34631H44.1177C44.5815 5.24471 45.4601 4.98465 45.9539 4.65436C45.9817 4.63574 46.0117 4.61633 46.0438 4.59618C44.4797 3.40586 44.2034 2.85145 40.3356 1.74262C39.8779 1.74262 38.678 1.64752 38.678 1.18822ZM49.1175 4.98655C49.1461 5.01261 49.1746 5.03866 49.2031 5.06469L49.2339 5.09277C49.8021 5.61151 50.3655 6.12585 50.9654 6.59758C52.182 7.55442 53.414 7.99522 54.978 8.11594C56.736 8.25162 58.3921 8.45479 59.5445 8.0592C60.1122 7.86432 60.7687 7.5965 61.056 7.28678C61.3336 6.98746 61.7398 6.77992 61.7915 6.26068C61.8269 5.90529 61.6809 5.10462 61.0519 4.78946C60.5034 4.51469 59.8269 4.40577 59.118 4.23505C57.4937 3.84391 55.3861 3.96028 53.8729 3.96028C52.486 3.96028 51.2831 4.31876 49.9428 4.78945C49.6365 4.98655 49.2695 4.92883 49.1175 4.98655Z" fill="#0F405F"/>
</svg>
