<svg width="78" height="67" viewBox="0 0 78 67" fill="none" xmlns="http://www.w3.org/2000/svg">
<path fill-rule="evenodd" clip-rule="evenodd" d="M19.3262 66.6663C19.3349 53.3773 26.2642 40.4555 38.6524 33.3333C38.6524 47.5778 30.8791 60.0144 19.3262 66.6663Z" fill="white"/>
<path fill-rule="evenodd" clip-rule="evenodd" d="M57.9785 4.52099e-05C57.9699 13.2891 51.0406 26.211 38.6524 33.3333C38.6524 19.0887 46.4256 6.65195 57.9785 4.52099e-05Z" fill="white"/>
<path fill-rule="evenodd" clip-rule="evenodd" d="M57.9785 66.6664C46.4257 60.0144 38.6524 47.5778 38.6524 33.3333C51.0406 40.4556 57.9699 53.3774 57.9785 66.6664Z" fill="white"/>
<path fill-rule="evenodd" clip-rule="evenodd" d="M19.3263 4.18308e-05C30.8792 6.65197 38.6524 19.0887 38.6524 33.3333C38.6524 33.3333 38.6524 33.3333 38.6524 33.3333C26.2642 26.211 19.3349 13.289 19.3263 4.18308e-05Z" fill="white"/>
<path fill-rule="evenodd" clip-rule="evenodd" d="M0.000112262 33.3331C11.5616 26.6961 26.2642 26.211 38.6524 33.3333C26.2642 40.4555 11.5616 39.9702 0.000112262 33.3331Z" fill="white"/>
<path fill-rule="evenodd" clip-rule="evenodd" d="M77.3047 33.3332C65.7432 39.9703 51.0406 40.4555 38.6524 33.3333C38.6524 33.3333 38.6524 33.3333 38.6524 33.3333C51.0406 26.211 65.7432 26.6961 77.3047 33.3332Z" fill="white"/>
</svg>
