<svg width="384" height="162" viewBox="0 0 384 162" fill="none" xmlns="http://www.w3.org/2000/svg">
<path fill-rule="evenodd" clip-rule="evenodd" d="M276.205 161.342L278.55 159.133C279.476 158.262 280.521 157.33 281.645 156.329C289.734 149.122 301.844 138.33 301.844 120.858C301.844 115.529 301.125 111.418 300.138 108.153C307.758 112.855 317.256 116.473 328.142 116.473C340.493 116.473 351.962 111.079 361.074 104.722C370.218 98.3424 377.414 90.6975 381.322 85.4843L383.663 82.362L380.834 79.6739C375.792 74.8811 367.24 67.7512 357.803 61.7875C348.56 55.9458 337.66 50.6949 328.142 50.6949C316.572 50.6949 308.634 55.3111 302.754 60.5854C301.586 61.6326 300.497 62.7085 299.48 63.7719C302.985 58.2436 304.766 51.7554 304.766 41.9245C304.766 36.535 302.873 31.3166 300.346 26.706C297.803 22.0675 294.47 17.7722 291.231 14.1509C287.981 10.5166 284.745 7.47069 282.327 5.33611C281.115 4.26609 280.101 3.41825 279.383 2.83279C279.024 2.5399 278.738 2.31225 278.539 2.15482C278.439 2.07608 278.36 2.01488 278.305 1.97182L278.239 1.92088L278.213 1.90083L278.211 1.899C278.211 1.899 278.209 1.89765 275.547 5.38107C273.126 1.72534 273.123 1.72699 273.123 1.72699L273.12 1.729L273.113 1.73413L273.091 1.74867L273.022 1.79488C272.966 1.83325 272.887 1.88676 272.789 1.95506C272.592 2.09164 272.313 2.28766 271.965 2.54066C271.27 3.04636 270.294 3.78172 269.13 4.72754C266.81 6.61392 263.71 9.36477 260.599 12.8279C254.478 19.6407 247.788 29.797 247.788 41.9245C247.788 59.0301 257.319 70.4955 265.109 78.4679L-73.617 78.4679C-76.0377 78.4679 -78 80.4312 -78 82.8531C-78 85.275 -76.0377 87.2383 -73.617 87.2383L264.752 87.2383C262.185 89.6294 259.459 92.2423 256.995 95.224C251.785 101.527 247.788 109.429 247.788 120.858C247.788 130.414 252.306 139.029 257.496 145.61C262.697 152.206 268.972 157.271 273.398 159.762L276.205 161.342ZM277.524 87.1535C278.255 87.096 279.068 87.0065 279.944 86.8772C279.867 87.8097 280.085 88.7742 280.633 89.6206C282.162 91.9848 284.433 94.8803 287.361 97.8838C287.278 98.2197 287.234 98.5709 287.234 98.9322C287.234 100.945 288.084 102.671 288.627 103.736C288.857 104.185 289.072 104.589 289.283 104.984C289.698 105.761 290.095 106.504 290.547 107.502C291.764 110.191 293.078 114.205 293.078 120.858C293.078 134.108 284.272 142.083 276.067 149.514C275.73 149.818 275.395 150.122 275.061 150.426C271.867 148.156 267.864 144.599 264.378 140.178C259.827 134.407 256.554 127.674 256.554 120.858C256.554 111.823 259.596 105.839 263.75 100.813C265.891 98.2224 268.336 95.8791 270.956 93.442C271.272 93.1481 271.592 92.8518 271.914 92.5531C273.764 90.8387 275.7 89.0442 277.524 87.1535ZM287.963 84.811C290.657 83.79 293.389 82.3732 295.816 80.4305C297.935 78.7347 299.967 76.4038 301.85 74.2436L302.065 73.9966C304.112 71.6491 306.185 69.2866 308.605 67.1156C313.317 62.8887 319.258 59.4653 328.142 59.4653C334.987 59.4653 344.055 63.4722 353.122 69.2025C360.335 73.761 367.039 79.078 371.818 83.3065C368.14 87.5807 362.66 92.923 356.06 97.5279C347.713 103.352 337.998 107.703 328.142 107.703C318.155 107.703 309.389 103.978 302.395 99.1579C295.371 94.317 290.366 88.5268 287.992 84.8561C287.983 84.841 287.973 84.826 287.963 84.811ZM275.542 76.4495C274.892 75.7839 274.229 75.1144 273.559 74.438C265.547 66.3508 256.554 57.2727 256.554 41.9245C256.554 33.003 261.551 24.8876 267.118 18.6909C269.851 15.6493 272.595 13.211 274.658 11.5344C274.919 11.3223 275.168 11.1228 275.405 10.9363C275.752 11.2333 276.127 11.5593 276.527 11.9125C278.766 13.889 281.739 16.6901 284.699 19.999C287.669 23.3209 290.545 27.0652 292.66 30.9231C294.789 34.8088 296 38.5436 296 41.9245C296 52.0914 293.9 57.0283 290.365 61.464C288.448 63.8696 286.052 66.1922 282.953 69.1579L282.636 69.4612C280.513 71.4922 278.133 73.7703 275.542 76.4495ZM275.547 5.38107L273.126 1.72533L275.729 4.57764e-05L278.211 1.899L275.547 5.38107Z" fill="black" fill-opacity="0.1"/>
</svg>
