<svg width="895" height="215" viewBox="0 0 895 215" fill="none" xmlns="http://www.w3.org/2000/svg">
<path d="M895 215C860.32 90.9708 746.522 1.29803e-05 611.488 2.47854e-05L281.798 5.36078e-05C148.911 6.52252e-05 36.5896 88.1012 -5.14956e-07 209.11L15.4189 209.11C51.5048 96.3552 157.124 14.7261 281.798 14.7261L611.488 14.7261C738.323 14.726 845.437 99.2092 879.681 215L895 215Z" fill="black" fill-opacity="0.1"/>
<path d="M849 215C815.796 115.618 722.126 44 611.76 44L282.187 44C174.017 44.0001 81.8843 112.798 47.0001 209.104L62.7219 209.104C96.897 121.107 182.273 58.7414 282.187 58.7414L611.76 58.7414C713.892 58.7414 800.833 123.905 833.425 215L849 215Z" fill="black" fill-opacity="0.1"/>
</svg>
