<?xml version="1.0" encoding="utf-8"?>
<!-- Generator: Adobe Illustrator 22.1.0, SVG Export Plug-In . SVG Version: 6.00 Build 0)  -->
<svg version="1.1" id="圖層_1" xmlns="http://www.w3.org/2000/svg" xmlns:xlink="http://www.w3.org/1999/xlink" x="0px" y="0px"
	 viewBox="0 0 330 148.3" style="enable-background:new 0 0 330 148.3;" xml:space="preserve">
<style type="text/css">
	.st0{fill:none;stroke:#0F405F;stroke-width:1.5;stroke-linecap:round;stroke-miterlimit:10;}
	.st1{fill:#0F405F;}
</style>
<g>
	<g>
		<path class="st0" d="M102.7,135.4c-5.9,0-11.5-0.8-16.9-2.4c10.9,7,23.9,11.1,37.8,11.1h83.2c13.9,0,26.9-4.1,37.8-11.1
			c-5.4,1.5-11,2.4-16.9,2.4H102.7z"/>
		<path class="st0" d="M227.7,12.9c5.9,0,11.5,0.8,16.9,2.4c-10.9-7-23.9-11.1-37.8-11.1h-83.2c-13.9,0-26.9,4.1-37.8,11.1
			c5.4-1.5,11-2.4,16.9-2.4H227.7z"/>
		<path class="st0" d="M288.1,84.5c-4,23.3-21.1,42.1-43.5,48.5c16.6-10.7,28.4-28.2,31.4-48.5L288.1,84.5z"/>
		<path class="st0" d="M288.1,63.9c-3.9-23.4-21.1-42.2-43.6-48.7C261.2,25.9,273,43.4,276,63.8L288.1,63.9z"/>
		<path class="st0" d="M54.3,84.5c3,20.4,14.8,37.8,31.4,48.5c-22.4-6.4-39.6-25.3-43.6-48.7L54.3,84.5z"/>
		<path class="st0" d="M54.3,63.8c3-20.4,14.8-37.8,31.4-48.5c-22.4,6.4-39.5,25.2-43.5,48.5L54.3,63.8z"/>
		<line class="st0" x1="74.1" y1="74.2" x2="4.4" y2="74.2"/>
		<path class="st1" d="M167,75.3c0,0,0-0.1,0.1-0.1c4.1-1.3,13.5,6.1,24.7,6.1c14.7,0,26.5-7.1,26.5-7.1S206.4,67,191.7,67
			c-11.2,0-20.6,7.4-24.7,6.1c0,0-0.1-0.1-0.1-0.1c0.9-4.2,12-8.6,17.7-18.3c7.3-12.7,7.1-26.5,7.1-26.5s-12.1,6.7-19.4,19.4
			c-5.6,9.7-3.8,21.5-7,24.4c0,0,0,0-0.1,0c0,0,0,0-0.1,0c-3.2-2.9-1.4-14.7-7-24.4c-7.3-12.7-19.4-19.4-19.4-19.4
			s-0.2,13.8,7.1,26.5c5.6,9.7,16.7,14.1,17.7,18.3c0,0,0,0.1-0.1,0.1c-4.1,1.3-13.5-6.1-24.7-6.1c-14.7,0-26.5,7.1-26.5,7.1
			s11.9,7.1,26.5,7.1c11.2,0,20.6-7.4,24.7-6.1c0,0,0.1,0.1,0.1,0.1c-0.9,4.2-12,8.6-17.7,18.3c-7.3,12.7-7.1,26.5-7.1,26.5
			s12.1-6.7,19.4-19.4c5.6-9.7,3.8-21.5,7-24.4c0,0,0,0,0.1,0c0,0,0,0,0.1,0c3.2,2.9,1.4,14.7,7,24.4c7.3,12.7,19.4,19.4,19.4,19.4
			s0.2-13.8-7.1-26.5C179,83.8,167.9,79.5,167,75.3z"/>
		<path class="st0" d="M86.7,66.2c7,0,12.6,7.9,12.6,7.9s-5.6,7.9-12.6,7.9s-12.6-7.9-12.6-7.9S79.8,66.2,86.7,66.2z"/>
		<g>
			<path class="st1" d="M74.1,76c1.7,1.2,4.5,3.8,4.5,6.3c0,2.5-2.8,5.1-4.5,6.3c-1.7-1.2-4.5-3.8-4.5-6.3
				C69.7,79.7,72.4,77.2,74.1,76 M74.1,74.2c0,0-6,3.6-6,8.1c0,4.5,6,8.1,6,8.1s6-3.6,6-8.1C80.1,77.8,74.1,74.2,74.1,74.2
				L74.1,74.2z"/>
		</g>
		<g>
			<path class="st1" d="M74.1,59.8c1.7,1.2,4.5,3.8,4.5,6.3c0,2.5-2.8,5.1-4.5,6.3c-1.7-1.2-4.5-3.8-4.5-6.3
				C69.7,63.5,72.4,61,74.1,59.8 M74.1,57.9c0,0-6,3.6-6,8.1s6,8.1,6,8.1s6-3.6,6-8.1S74.1,57.9,74.1,57.9L74.1,57.9z"/>
		</g>
		<line class="st0" x1="256.6" y1="74.2" x2="326.3" y2="74.2"/>
		<path class="st0" d="M244,82.1c-7,0-12.6-7.9-12.6-7.9s5.6-7.9,12.6-7.9c7,0,12.6,7.9,12.6,7.9S251,82.1,244,82.1z"/>
		<g>
			<path class="st1" d="M256.6,59.8c1.7,1.2,4.5,3.8,4.5,6.3c0,2.5-2.8,5.1-4.5,6.3c-1.7-1.2-4.5-3.8-4.5-6.3
				C252.2,63.5,254.9,61,256.6,59.8 M256.6,57.9c0,0-6,3.6-6,8.1c0,4.5,6,8.1,6,8.1s6-3.6,6-8.1C262.6,61.6,256.6,57.9,256.6,57.9
				L256.6,57.9z"/>
		</g>
		<g>
			<path class="st1" d="M256.6,76c1.7,1.2,4.5,3.8,4.5,6.3c0,2.5-2.8,5.1-4.5,6.3c-1.7-1.2-4.5-3.8-4.5-6.3
				C252.2,79.7,254.9,77.2,256.6,76 M256.6,74.2c0,0-6,3.6-6,8.1c0,4.5,6,8.1,6,8.1s6-3.6,6-8.1C262.6,77.8,256.6,74.2,256.6,74.2
				L256.6,74.2z"/>
		</g>
	</g>
	<g>
		<path class="st0" d="M31.1,106.3c-0.2,0.1-5.2,2.9-8.9,7c-3.6-4.1-8.7-6.9-8.9-7c0.2-0.1,5.2-2.9,8.9-7
			C25.8,103.5,30.9,106.2,31.1,106.3z"/>
		<path class="st0" d="M25.8,121.4c0,4.1-1.4,7.9-3.6,10.6c-2.2-2.7-3.6-6.5-3.6-10.6c0-3,1.6-5.7,3.6-8
			C24.2,115.7,25.8,118.4,25.8,121.4z"/>
	</g>
	<g>
		<path class="st0" d="M311.4,28.7c0,3-1.6,5.7-3.6,8c-2-2.3-3.6-5.1-3.6-8c0-4.1,1.4-7.9,3.6-10.6C310,20.8,311.4,24.5,311.4,28.7z
			"/>
		<path class="st0" d="M316.7,43.8c-0.2,0.1-5.2,2.9-8.9,7c-3.6-4.1-8.7-6.9-8.9-7c0.2-0.1,5.2-2.9,8.9-7
			C311.4,40.9,316.5,43.7,316.7,43.8z"/>
	</g>
</g>
</svg>
