<svg width="25" height="26" viewBox="0 0 25 26" fill="none" xmlns="http://www.w3.org/2000/svg">
<g clip-path="url(#clip0_387_2483)">
<path d="M24.6094 13.3799C24.6094 6.69049 19.1895 1.27057 12.5 1.27057C5.81055 1.27057 0.390625 6.69049 0.390625 13.3799C0.390625 19.4239 4.81885 24.4337 10.6079 25.3428V16.8804H7.53174V13.3799H10.6079V10.712C10.6079 7.67731 12.4146 6.00104 15.1816 6.00104C16.5068 6.00104 17.8926 6.23737 17.8926 6.23737V9.21588H16.3652C14.8613 9.21588 14.3921 10.1495 14.3921 11.107V13.3799H17.7505L17.2134 16.8804H14.3921V25.3428C20.1812 24.4337 24.6094 19.4239 24.6094 13.3799Z" fill="#0F405F"/>
</g>
<defs>
<clipPath id="clip0_387_2483">
<rect width="25" height="25" fill="white" transform="translate(0 0.879944)"/>
</clipPath>
</defs>
</svg>
