<svg width="25" height="26" viewBox="0 0 25 26" fill="none" xmlns="http://www.w3.org/2000/svg">
<path d="M12.5049 7.76471C9.39941 7.76471 6.89453 10.2696 6.89453 13.3751C6.89453 16.4805 9.39941 18.9854 12.5049 18.9854C15.6104 18.9854 18.1152 16.4805 18.1152 13.3751C18.1152 10.2696 15.6104 7.76471 12.5049 7.76471ZM12.5049 17.0225C10.498 17.0225 8.85742 15.3868 8.85742 13.3751C8.85742 11.3633 10.4932 9.7276 12.5049 9.7276C14.5166 9.7276 16.1523 11.3633 16.1523 13.3751C16.1523 15.3868 14.5117 17.0225 12.5049 17.0225ZM19.6533 7.53522C19.6533 8.26276 19.0674 8.84381 18.3447 8.84381C17.6172 8.84381 17.0361 8.25787 17.0361 7.53522C17.0361 6.81256 17.6221 6.22662 18.3447 6.22662C19.0674 6.22662 19.6533 6.81256 19.6533 7.53522ZM23.3691 8.86334C23.2861 7.11041 22.8857 5.55768 21.6016 4.27838C20.3223 2.99908 18.7695 2.59869 17.0166 2.5108C15.21 2.40826 9.79492 2.40826 7.98828 2.5108C6.24023 2.59381 4.6875 2.9942 3.40332 4.2735C2.11914 5.5528 1.72363 7.10553 1.63574 8.85846C1.5332 10.6651 1.5332 16.0801 1.63574 17.8868C1.71875 19.6397 2.11914 21.1924 3.40332 22.4717C4.6875 23.751 6.23535 24.1514 7.98828 24.2393C9.79492 24.3419 15.21 24.3419 17.0166 24.2393C18.7695 24.1563 20.3223 23.7559 21.6016 22.4717C22.8809 21.1924 23.2813 19.6397 23.3691 17.8868C23.4717 16.0801 23.4717 10.67 23.3691 8.86334ZM21.0352 19.8253C20.6543 20.7823 19.917 21.5196 18.9551 21.9053C17.5146 22.4766 14.0967 22.3448 12.5049 22.3448C10.9131 22.3448 7.49023 22.4717 6.05469 21.9053C5.09766 21.5245 4.36035 20.7872 3.97461 19.8253C3.40332 18.3848 3.53516 14.9669 3.53516 13.3751C3.53516 11.7833 3.4082 8.36041 3.97461 6.92487C4.35547 5.96783 5.09277 5.23053 6.05469 4.84479C7.49512 4.2735 10.9131 4.40533 12.5049 4.40533C14.0967 4.40533 17.5195 4.27838 18.9551 4.84479C19.9121 5.22565 20.6494 5.96295 21.0352 6.92487C21.6064 8.3653 21.4746 11.7833 21.4746 13.3751C21.4746 14.9669 21.6064 18.3897 21.0352 19.8253Z" fill="#0F405F"/>
</svg>
