<svg width="25" height="26" viewBox="0 0 25 26" fill="none" xmlns="http://www.w3.org/2000/svg">
<path d="M22.4302 8.28798C22.446 8.51005 22.446 8.73217 22.446 8.95424C22.446 15.7277 17.2906 23.5323 7.86802 23.5323C4.96509 23.5323 2.26841 22.6915 0 21.2322C0.412451 21.2797 0.808984 21.2956 1.2373 21.2956C3.63257 21.2956 5.83755 20.4866 7.59834 19.1065C5.3458 19.0589 3.45811 17.5837 2.80771 15.5532C3.125 15.6008 3.44224 15.6325 3.77539 15.6325C4.2354 15.6325 4.69546 15.569 5.12373 15.458C2.77603 14.9821 1.01519 12.92 1.01519 10.4295V10.3661C1.69727 10.7468 2.49048 10.9847 3.33115 11.0164C1.95107 10.0963 1.04692 8.52592 1.04692 6.74926C1.04692 5.7975 1.30068 4.92504 1.74487 4.16361C4.26709 7.27274 8.05835 9.30316 12.3096 9.52528C12.2303 9.14457 12.1827 8.74803 12.1827 8.35145C12.1827 5.52782 14.4669 3.22772 17.3064 3.22772C18.7816 3.22772 20.1141 3.84637 21.05 4.84574C22.208 4.62367 23.3184 4.19535 24.302 3.60844C23.9212 4.79818 23.1122 5.79755 22.0494 6.43202C23.0805 6.32103 24.0799 6.03544 24.9999 5.6389C24.3021 6.65409 23.4295 7.55824 22.4302 8.28798Z" fill="#0F405F"/>
</svg>
